<svg width="1024" height="1024" viewBox="0 0 1024 1024" fill="none" xmlns="http://www.w3.org/2000/svg">
  <rect width="1024" height="1024" fill="white"/>
  <path d="M391 280H441L471 283L507 290L532 297L552 304L582 317L600 327L601 332L600 337L573 340L549 345L529 351L513 357L489 368L469 380L460 386H449L419 384H365L344 387L329 391L313 397L299 405L283 418L272 432L264 446L258 464L256 478L257 495L262 511L267 521L275 531L286 540L301 547L314 551L329 553H355L379 550L404 544L431 535L459 522L475 513L494 501L512 488L532 473L556 457L580 443L596 435L613 427L588 435L564 444L536 457L504 474L480 488L456 501L437 510L412 519L387 525L374 527L362 528H318L315 525L316 519L328 493L335 477L341 472L380 469L406 465L430 459L456 451L495 435L534 417L558 407L586 397L610 390L642 383L669 379L693 377H748L780 380L810 385L835 391L839 395L837 401L822 429L812 447L806 458L802 460L761 458H704L673 461L647 466L621 474L603 482L585 492L566 506L556 515L545 524L530 538L522 545L494 569L477 582L461 594L446 604L427 616L398 631L416 625L447 612L482 595L512 579L534 566L560 550L566 546L568 547L567 552L566 582L562 588L548 598L526 610L501 620L473 629L435 638L398 644L368 647L351 648H299L277 646L257 642L230 633L213 625L198 615L188 607L178 598L170 589L159 573L150 556L144 539L140 523L138 509V474L142 450L151 423L159 407L168 392L181 376L199 358L213 347L228 337L246 328L266 321L290 314L322 308L391 280Z" fill="#463CC8"/>
  <path d="M666 500H860L865 505L866 507L867 516V550L863 574L856 597L844 622L834 637L825 648L816 658L807 667L793 678L778 688L764 696L741 706L715 714L691 719L666 722L630 723L599 721L569 717L533 709L507 701L479 690L450 676L432 665L431 660L434 658L463 652L490 644L518 633L543 621L548 622L563 628L580 633L604 637L615 638H638L658 636L678 632L696 626L717 615L727 607L737 597L746 582L751 568L752 565H634L631 562L632 557L647 529L660 505L664 501L666 500Z" fill="#463CC8"/>
</svg>
